HIERARCHY
ROOT root
{
	OFFSET	0	13.1	24.9
	CHANNELS 6  Xposition Yposition Zposition Xrotation Yrotation Zrotation
	JOINT spine_1
	{
		OFFSET	0	9.99999	0
		CHANNELS 3  Xrotation Yrotation Zrotation
		JOINT spine_2
		{
			OFFSET	0	112	-10
			CHANNELS 3  Xrotation Yrotation Zrotation
			JOINT spine_3
			{
				OFFSET	0	206.5	19.3
				CHANNELS 3  Xrotation Yrotation Zrotation
				JOINT spine_4
				{
					OFFSET	0	110.4	14.6
					CHANNELS 3  Xrotation Yrotation Zrotation
					JOINT neck_1
					{
						OFFSET	0	71.8	-50.3
						CHANNELS 3  Xrotation Yrotation Zrotation
						JOINT neck_2
						{
							OFFSET	0	86.2	-25.8
							CHANNELS 3  Xrotation Yrotation Zrotation
							JOINT head_ee
							{
								OFFSET	0	179.8	-8.7
								CHANNELS 3  Xrotation Yrotation Zrotation
								End Site
								{
									OFFSET	1	0	0
								}
							}
						}
					}
					JOINT left_clavicle
					{
						OFFSET	-43.2	22.4	-70.8
						CHANNELS 3  Xrotation Yrotation Zrotation
						JOINT left_shoulder
						{
							OFFSET	-93.9	-5.79999	48.7
							CHANNELS 3  Xrotation Yrotation Zrotation
							JOINT left_elbow
							{
								OFFSET	-291.4	-30.8	15.2
								CHANNELS 3  Xrotation Yrotation Zrotation
								JOINT left_lowarm_twist
								{
									OFFSET	-110.7	-3.89999	13.6
									CHANNELS 3  Xrotation Yrotation Zrotation
									JOINT left_hand
									{
										OFFSET	-110.7	-3.89999	13.6
										CHANNELS 3  Xrotation Yrotation Zrotation
										JOINT left_ee
										{
											OFFSET	-80.8	-5.10001	12.1
											CHANNELS 3  Xrotation Yrotation Zrotation
											End Site
											{
												OFFSET	1	0	0
											}
										}
									}
								}
							}
						}
					}
					JOINT right_clavicle
					{
						OFFSET	43.2	22.4	-70.8
						CHANNELS 3  Xrotation Yrotation Zrotation
						JOINT right_shoulder
						{
							OFFSET	93.9	-5.79999	48.7
							CHANNELS 3  Xrotation Yrotation Zrotation
							JOINT right_elbow
							{
								OFFSET	291.4	-30.8	15.2
								CHANNELS 3  Xrotation Yrotation Zrotation
								JOINT right_lowarm_twist
								{
									OFFSET	110.7	-3.89999	13.6
									CHANNELS 3  Xrotation Yrotation Zrotation
									JOINT right_hand
									{
										OFFSET	110.7	-3.89999	13.6
										CHANNELS 3  Xrotation Yrotation Zrotation
										JOINT right_ee
										{
											OFFSET	80.8	-5.10001	12.1
											CHANNELS 3  Xrotation Yrotation Zrotation
											End Site
											{
												OFFSET	1	0	0
											}
										}
									}
								}
							}
						}
					}
				}
			}
		}
	}
	JOINT left_hip
	{
		OFFSET	-82.8	-127.5	0.300001
		CHANNELS 3  Xrotation Yrotation Zrotation
		JOINT left_knee
		{
			OFFSET	-28.2	-396.7	2.2
			CHANNELS 3  Xrotation Yrotation Zrotation
			JOINT left_ankle
			{
				OFFSET	-11.7	-411.3	35.4
				CHANNELS 3  Xrotation Yrotation Zrotation
				JOINT left_toes
				{
					OFFSET	0	-60	-88.6
					CHANNELS 3  Xrotation Yrotation Zrotation
					JOINT left_foot_ee
					{
						OFFSET	-22.5	-16.5	-42.2
						CHANNELS 3  Xrotation Yrotation Zrotation
						End Site
						{
							OFFSET	1	0	0
						}
					}
				}
			}
		}
	}
	JOINT right_hip
	{
		OFFSET	82.8	-127.5	0.300001
		CHANNELS 3  Xrotation Yrotation Zrotation
		JOINT right_knee
		{
			OFFSET	28.2	-396.7	2.2
			CHANNELS 3  Xrotation Yrotation Zrotation
			JOINT right_ankle
			{
				OFFSET	11.7	-411.3	35.4
				CHANNELS 3  Xrotation Yrotation Zrotation
				JOINT right_toes
				{
					OFFSET	0	-60	-88.6
					CHANNELS 3  Xrotation Yrotation Zrotation
					JOINT right_foot_ee
					{
						OFFSET	22.5	-16.5	-42.2
						CHANNELS 3  Xrotation Yrotation Zrotation
						End Site
						{
							OFFSET	1	0	0
						}
					}
				}
			}
		}
	}
}
MOTION
Frames: 6
Frame Time: 0.02
827.046479945 649.088 -1881.71077791 0.789396459921 13.5490995945 9.50613257919 3.20769 -0.897918 -4.55323 3.21902 -0.606679 -4.601 3.26371 0.109504 -4.63945 3.23423 -0.623796 -4.59872 -28.7482 10.8278 13.0022 -28.9127 16.2096 18.3369 -0.0 0.0 -0.0 6.66199 17.8789 12.3852 -20.1184 -31.107 53.1577 1.39406 -34.626 0.434567 -16.724 -0.87942 1.94166 -2.86754 13.106 -12.7345 -0.0 0.0 -0.0 -0.735584 0.809078 1.52641 -24.3026 22.8041 -62.8621 0.650904 17.8714 -0.102345 -44.8136 3.47702 -4.38455 -0.304067 -2.46744 0.979251 0.0 0.0 0.0 12.759 28.7389 -11.3229 3.96262 -0.183346 -0.580232 -6.34397 12.4563 0.942627 1.75856 -0.0 -0.0 -0.0 0.0 -0.0 17.4098 18.9922 -9.07561 -33.6731 0.114059 -5.09281 -24.9864 -29.9463 -4.03422 -20.725 0.0 0.0 0.0 0.0 0.0 
821.573161871 652.542 -1888.59617114 0.551748120587 12.7344693308 9.815740508 3.30961 -0.872431 -4.6936 3.32168 -0.572342 -4.73946 3.36436 0.156521 -4.77126 3.3331 -0.598112 -4.73629 -28.9766 10.6197 13.7315 -29.0431 15.6057 18.9316 -0.0 0.0 -0.0 6.67299 19.2397 12.31 -19.1524 -29.0021 53.611 1.49746 -36.5656 0.494766 -18.2267 -0.985536 2.10214 -2.91569 12.353 -13.4499 -0.0 0.0 -0.0 0.176291 -0.66917 -0.417435 -26.12 21.6794 -59.8017 0.673716 18.4559 -0.109457 -44.8561 3.48178 -4.38721 -0.228279 -3.39951 0.0825812 0.0 0.0 0.0 11.4089 27.6052 -11.1235 5.1748 -0.247419 -0.755102 -5.86849 11.8272 0.870677 -1.78379 0.0 0.0 -0.0 0.0 -0.0 17.3829 15.4416 -8.23762 -28.2273 -0.107872 -4.28688 -23.7885 -24.7729 -3.72481 -24.4011 0.0 0.0 0.0 0.0 0.0 
814.068061633 653.45 -1885.05208729 -0.653191808409 12.8724149397 10.3025493799 3.39711 -0.892159 -4.72328 3.40932 -0.590148 -4.77033 3.45343 0.136086 -4.80469 3.42177 -0.623554 -4.76608 -29.2657 11.1859 13.9774 -29.4112 16.6657 19.5685 -0.0 0.0 -0.0 7.0381 17.2638 13.0284 -16.7829 -25.8121 53.7395 1.51308 -36.8504 0.5041 -17.1933 -0.912107 1.99207 -2.91561 11.8455 -13.7212 -0.0 0.0 -0.0 2.34366 -1.96215 -4.66579 -28.2104 21.0053 -54.172 0.676895 18.5371 -0.110465 -43.5706 3.33865 -4.30515 0.453238 -2.00451 -3.85459 0.0 0.0 0.0 12.8962 29.5213 -11.6008 5.8246 -0.283289 -0.848286 -7.05702 11.45 1.04874 -7.01455 0.0 0.0 -0.0 0.0 -0.0 16.055 4.94082 -6.19004 -20.6133 -0.287843 -3.13315 -21.0379 -17.8843 -3.2048 -28.8026 0.0 0.0 0.0 0.0 0.0 
807.350809772 655.032 -1891.49975729 -0.862848003941 13.9609074454 10.2329115436 3.41333 -0.82784 -4.77641 3.42587 -0.522589 -4.81927 3.46457 0.209564 -4.84293 3.43229 -0.557011 -4.81542 -30.133 11.5248 13.4405 -30.4494 17.6473 19.5183 -0.0 0.0 -0.0 7.49406 16.2435 13.8488 -16.3819 -24.6185 53.7947 1.51215 -36.8336 0.503545 -17.6377 -0.943438 2.03956 -2.40213 12.0927 -10.2626 -0.0 0.0 -0.0 2.39404 -2.82796 -4.82513 -28.0768 20.7795 -53.6062 0.652062 17.9012 -0.102701 -43.2734 3.30582 -4.28572 0.573347 -3.32027 -5.1895 0.0 0.0 0.0 11.2805 30.416 -10.1149 7.17884 -0.36144 -1.04117 -4.56428 9.55741 0.674594 -6.35267 0.0 0.0 -0.0 0.0 -0.0 16.0453 2.68721 -6.69172 -16.612 -0.320591 -2.5202 -24.3215 -17.7729 -3.70526 -31.167 0.0 0.0 0.0 0.0 0.0 
792.196577381 653.325 -1890.64970863 -1.28728127252 13.2991656221 9.34420909501 2.85347 -0.710691 -4.68196 2.86557 -0.411665 -4.71759 2.89626 0.35121 -4.72246 2.86537 -0.39817 -4.71874 -29.1881 11.3649 11.8717 -29.5849 17.6962 17.745 -0.0 0.0 -0.0 7.72727 14.6267 14.3677 -14.4754 -23.3166 54.8987 1.48686 -36.371 0.488462 -13.4039 -0.660156 1.57768 -2.86136 12.9648 -12.77 -0.0 0.0 -0.0 2.88757 -2.235 -5.71392 -28.7066 19.9787 -51.2197 0.812297 21.9192 -0.157302 -41.9304 3.15877 -4.19583 0.875549 -1.44421 -6.44507 0.0 0.0 0.0 10.7672 32.3189 -8.34392 5.51125 -0.265859 -0.803399 0.117207 11.2566 -0.0171687 -11.4597 0.0 0.0 -0.0 0.0 -0.0 17.4988 -0.531135 -5.62669 -9.12576 -0.266809 -1.37363 -11.2624 -2.44175 -1.69186 -31.8509 0.0 0.0 0.0 0.0 0.0 
791.495024676 651.234 -1887.59844462 -2.46868306104 14.3365117056 9.56491820361 3.16528 -0.700624 -4.62235 3.17707 -0.405399 -4.65746 3.20588 0.32248 -4.66392 3.17578 -0.417326 -4.65641 -28.9191 11.5393 11.1891 -29.4006 18.2201 17.1648 -0.0 0.0 -0.0 7.90974 12.9548 14.8112 -13.7808 -22.4805 55.191 1.50443 -36.6929 0.498921 -12.6012 -0.610354 1.48785 -2.7978 12.5147 -12.5982 -0.0 0.0 -0.0 3.01133 -2.20747 -5.94625 -27.4119 19.6701 -51.4294 0.818469 22.0697 -0.159614 -41.0725 3.06594 -4.13662 0.982745 -3.36048 -7.9309 0.0 0.0 0.0 11.6508 32.0873 -7.61603 6.27319 -0.30867 -0.91238 2.41327 10.6225 -0.351319 -12.7417 0.0 0.0 -0.0 0.0 -0.0 18.111 -1.10517 -5.36958 -6.84138 -0.220625 -1.02615 -9.26762 3.27499 -1.41087 -32.7593 0.0 0.0 0.0 0.0 0.0 
